HIERARCHY
ROOT Hips
{
	OFFSET -0.001795 -0.223333 0.028219
	CHANNELS 6 Xposition Yposition Zposition Zrotation Yrotation Xrotation 
	JOINT LeftUpLeg
	{
		OFFSET 0.069520 -0.091406 -0.006815
		CHANNELS 3 Zrotation Yrotation Xrotation
		JOINT LeftLeg
		{
			OFFSET 0.034277 -0.375199 -0.004496
			CHANNELS 3 Zrotation Yrotation Xrotation
			JOINT LeftFoot
			{
				OFFSET -0.013596 -0.397961 -0.043693
				CHANNELS 3 Zrotation Yrotation Xrotation
				JOINT LeftToe
				{
					OFFSET 0.026358 -0.055791 0.119288
					CHANNELS 3 Zrotation Yrotation Xrotation
					End Site
					{
						OFFSET 0.000000 0.000000 0.000000
					}
				}
			}
		}
	}
	JOINT RightUpLeg
	{
		OFFSET -0.067670 -0.090522 -0.004320
		CHANNELS 3 Zrotation Yrotation Xrotation
		JOINT RightLeg
		{
			OFFSET -0.038290 -0.382569 -0.008850
			CHANNELS 3 Zrotation Yrotation Xrotation
			JOINT RightFoot
			{
				OFFSET 0.015774 -0.398415 -0.042312
				CHANNELS 3 Zrotation Yrotation Xrotation
				JOINT RightToe
				{
					OFFSET -0.025372 -0.048144 0.123348
					CHANNELS 3 Zrotation Yrotation Xrotation
					End Site
					{
						OFFSET 0.000000 0.000000 0.000000
					}
				}
			}
		}
	}
	JOINT Spine
	{
		OFFSET -0.002533 0.108963 -0.026696
		CHANNELS 3 Zrotation Yrotation Xrotation
		JOINT Spine1
		{
			OFFSET 0.005487 0.135180 0.001092
			CHANNELS 3 Zrotation Yrotation Xrotation
			JOINT Spine2
			{
				OFFSET 0.001457 0.052922 0.025425
				CHANNELS 3 Zrotation Yrotation Xrotation
				JOINT Neck
				{
					OFFSET -0.002778 0.213870 -0.042857
					CHANNELS 3 Zrotation Yrotation Xrotation
					JOINT Head
					{
						OFFSET 0.005152 0.064970 0.051349
						CHANNELS 3 Zrotation Yrotation Xrotation
						End Site
						{
							OFFSET 0.000000 0.000000 0.000000
						}
					}
				}
				JOINT LeftShoulder
				{
					OFFSET 0.078845 0.121749 -0.034090
					CHANNELS 3 Zrotation Yrotation Xrotation
					JOINT LeftArm
					{
						OFFSET 0.090977 0.030469 -0.008868
						CHANNELS 3 Zrotation Yrotation Xrotation
						JOINT LeftForeArm
						{
							OFFSET 0.259612 -0.012772 -0.027456
							CHANNELS 3 Zrotation Yrotation Xrotation
							JOINT LeftHand
							{
								OFFSET 0.249234 0.008986 -0.001171
								CHANNELS 3 Zrotation Yrotation Xrotation
								End Site
								{
									OFFSET 0.000000 0.000000 0.000000
								}
							}
						}
					}
				}
				JOINT RightShoulder
				{
					OFFSET -0.081759 0.118833 -0.038615
					CHANNELS 3 Zrotation Yrotation Xrotation
					JOINT RightArm
					{
						OFFSET -0.096012 0.032551 -0.009143
						CHANNELS 3 Zrotation Yrotation Xrotation
						JOINT RightForeArm
						{
							OFFSET -0.253742 -0.013329 -0.021401
							CHANNELS 3 Zrotation Yrotation Xrotation
							JOINT RightHand
							{
								OFFSET -0.255298 0.007772 -0.005559
								CHANNELS 3 Zrotation Yrotation Xrotation
								End Site
								{
									OFFSET 0.000000 0.000000 0.000000
								}
							}
						}
					}
				}
			}
		}
	}
}
MOTION
Frames: 13
Frame Time: 0.050000
0.000000 0.956139 0.000000 -1.906277 5.510268 1.886124 5.167959 -0.115882 0.909463 -4.333730 0.393772 -3.910340 10.006627 20.647158 14.957695 0.000000 0.000000 0.000000 -4.074834 0.339641 -4.177685 2.100241 -0.196751 3.007848 -4.859678 -13.821583 16.264145 0.000000 0.000000 0.000000 -0.161695 -0.268901 6.397623 4.896816 -0.467896 -24.387052 -1.283914 -2.743609 29.760518 -0.533582 2.160925 -30.465151 0.000000 0.000000 0.000000 -21.209099 -0.984836 -0.795867 -54.165828 -12.428472 -3.577298 -66.312964 -48.233222 37.454570 0.000000 0.000000 0.000000 10.749909 1.159571 0.211250 56.344457 0.202352 -8.023312 59.939760 62.157047 43.452861 0.000000 0.000000 0.000000 
0.001201 0.955386 0.001280 -2.388002 3.626751 2.272332 4.743605 -0.042063 1.795834 -3.155686 0.340162 -4.387936 10.888092 21.763793 14.111770 0.000000 0.000000 0.000000 -4.184644 0.359873 -4.215243 2.310867 -0.220517 2.517943 -3.279627 -11.268681 15.541275 0.000000 0.000000 0.000000 0.392413 -0.318147 6.665807 4.520865 -0.357628 -25.154185 -0.697841 -2.075178 30.274272 -0.880320 2.303458 -31.318789 0.000000 0.000000 0.000000 -20.417550 1.571327 -2.031224 -54.751839 -11.286686 -4.159724 -78.071224 -46.936155 44.574480 0.000000 0.000000 0.000000 9.299169 -0.858106 -0.712186 56.466428 -4.273339 -10.125119 80.893073 59.737566 57.726600 0.000000 0.000000 0.000000 
0.002187 0.954894 0.002324 -2.020041 4.191215 2.601402 3.731110 0.023277 2.344848 -2.316888 0.287812 -4.563489 10.422659 21.120327 13.783112 0.000000 0.000000 0.000000 -4.651437 0.379679 -4.732475 2.171502 -0.194671 3.143242 -3.049328 -10.700153 15.021576 0.000000 0.000000 0.000000 -0.150414 -0.262668 6.310107 5.627918 -0.713816 -23.513235 -2.179139 -2.304659 28.856628 -0.686294 2.087218 -28.092097 0.000000 0.000000 0.000000 -20.141340 3.115925 -2.965608 -54.277818 -9.005799 -5.004949 -82.712542 -48.053729 48.716662 0.000000 0.000000 0.000000 10.476426 -2.300458 -1.464790 55.440219 -9.382097 -12.019071 95.077145 58.045119 68.154149 0.000000 0.000000 0.000000 
0.002924 0.954631 0.003287 -2.112762 3.978209 2.738305 3.174008 0.055744 2.417800 -1.251911 0.216997 -4.118101 11.117252 22.083666 12.901332 0.000000 0.000000 0.000000 -4.900566 0.380035 -4.771290 2.642789 -0.258483 3.312092 -2.658161 -9.939405 14.460347 0.000000 0.000000 0.000000 -0.534173 -0.241633 6.466128 6.442210 -0.888011 -23.943499 -2.469996 -2.898667 29.095629 -0.269473 1.686818 -27.268474 0.000000 0.000000 0.000000 -20.613430 4.956894 -3.887231 -54.157672 -7.416822 -5.725564 -88.943780 -48.203773 54.044973 0.000000 0.000000 0.000000 9.211546 -3.769781 -2.125572 54.470969 -11.896552 -12.910157 110.910896 54.455157 79.357013 0.000000 0.000000 0.000000 
0.003418 0.954836 0.004076 -2.091477 5.038690 2.720082 2.962308 0.071787 2.669642 -0.996890 0.193568 -3.930612 10.184683 20.758128 12.208949 0.000000 0.000000 0.000000 -5.142794 0.356908 -4.674198 2.652872 -0.273117 2.969854 -2.830179 -10.123458 14.636242 0.000000 0.000000 0.000000 -0.442864 -0.289980 7.348624 6.683322 -0.913695 -24.176680 -3.117806 -4.125861 28.757000 -0.322844 1.573642 -26.473391 0.000000 0.000000 0.000000 -20.097947 5.248523 -3.851090 -54.682981 -5.548363 -6.568063 -94.722400 -50.368408 61.578388 0.000000 0.000000 0.000000 8.447598 -5.304099 -2.810399 54.812657 -15.260716 -14.397278 118.134126 50.164207 81.457411 0.000000 0.000000 0.000000 
0.003921 0.955349 0.004281 -2.020125 5.685879 2.394953 2.771066 0.107147 3.159783 -0.564156 0.180106 -4.526814 9.333237 19.543408 12.214431 0.000000 0.000000 0.000000 -5.434311 0.328869 -4.520629 2.775273 -0.295324 3.135801 -2.804133 -9.941130 14.350460 0.000000 0.000000 0.000000 -0.655365 -0.289717 7.674508 6.586340 -0.844176 -24.715190 -2.987548 -4.644752 29.511549 0.039988 1.335735 -26.625607 0.000000 0.000000 0.000000 -19.556326 4.741868 -3.437611 -55.033048 -5.377027 -6.770494 -96.688170 -51.962127 65.353064 0.000000 0.000000 0.000000 7.522159 -5.103860 -2.616775 55.477418 -15.982441 -14.990862 123.710471 49.510744 87.507574 0.000000 0.000000 0.000000 
0.004152 0.955750 0.003786 -1.932064 5.972326 2.098556 2.895320 0.126276 3.647744 -0.875034 0.201812 -4.748823 8.946769 19.032578 12.809337 0.000000 0.000000 0.000000 -5.598800 0.305384 -4.297775 2.833160 -0.307215 3.068848 -3.086685 -10.425895 14.411161 0.000000 0.000000 0.000000 -0.539462 -0.319893 8.097076 6.603274 -0.866587 -24.467018 -3.275919 -4.549686 29.136941 0.109761 1.370432 -27.056800 0.000000 0.000000 0.000000 -19.652375 3.852710 -3.030860 -54.295026 -7.760316 -5.591939 -93.833828 -54.844566 65.591649 0.000000 0.000000 0.000000 7.347514 -4.548326 -2.336391 54.559859 -14.042718 -13.826964 123.763559 50.651702 89.224761 0.000000 0.000000 0.000000 
0.003840 0.955797 0.002643 -1.895847 6.633559 1.693585 2.958200 0.132498 3.918544 -1.141539 0.215929 -4.861360 8.665274 18.634896 12.616330 0.000000 0.000000 0.000000 -5.609966 0.271662 -3.910436 2.801418 -0.311510 2.716774 -3.530466 -11.107589 14.123450 0.000000 0.000000 0.000000 -0.395937 -0.356625 8.537238 6.313936 -0.798044 -24.348743 -3.208979 -4.557307 28.918706 -0.089380 1.549862 -26.993027 0.000000 0.000000 0.000000 -19.902288 1.231635 -1.687063 -53.958750 -12.581162 -3.405427 -87.117951 -60.351003 65.035877 0.000000 0.000000 0.000000 7.577041 -1.698240 -1.076827 54.723268 -9.295893 -11.812126 118.912793 55.985102 90.626278 0.000000 0.000000 0.000000 
0.002655 0.956488 0.000492 -1.902523 6.960830 1.186367 3.311481 0.118305 4.114454 -1.496251 0.232585 -4.848348 8.774949 18.855548 13.228760 0.000000 0.000000 0.000000 -5.582353 0.240279 -3.510290 2.989346 -0.342666 2.733335 -3.866287 -11.746767 14.743517 0.000000 0.000000 0.000000 -0.226086 -0.411273 9.289204 5.973669 -0.705211 -24.411337 -2.990315 -4.375775 28.662333 -0.536817 1.877634 -27.089413 0.000000 0.000000 0.000000 -19.638016 -1.746418 -0.107209 -54.676030 -20.067191 0.096908 -71.139010 -65.778794 56.231288 0.000000 0.000000 0.000000 8.313432 1.644541 0.384386 54.725721 -3.268637 -9.208810 108.049387 62.204582 86.110581 0.000000 0.000000 0.000000 
0.000340 0.956713 -0.002588 -1.957568 7.364025 0.775859 3.863376 0.082084 4.206187 -1.884833 0.251719 -4.982413 8.631352 18.682992 13.363062 0.000000 0.000000 0.000000 -5.158699 0.221107 -3.144797 2.821823 -0.323347 2.512281 -4.157913 -12.245121 15.034539 0.000000 0.000000 0.000000 -0.107444 -0.464678 10.023807 6.106316 -0.736906 -24.381286 -2.877957 -4.184517 28.561382 -1.050934 2.251099 -27.249648 0.000000 0.000000 0.000000 -19.446868 -5.072078 1.619622 -55.616166 -27.986771 4.127485 -45.145854 -69.568530 38.155572 0.000000 0.000000 0.000000 9.111140 5.286455 2.027510 55.269525 3.673454 -6.213217 88.389866 69.044231 74.058588 0.000000 0.000000 0.000000 
-0.002773 0.957104 -0.006553 -1.974612 7.109914 0.624474 4.150181 0.052843 3.870197 -2.053155 0.259765 -4.815092 8.901162 19.093870 13.783535 0.000000 0.000000 0.000000 -5.125374 0.210233 -2.925274 2.945702 -0.342041 2.169801 -3.859316 -11.755797 15.097978 0.000000 0.000000 0.000000 -0.171693 -0.491801 10.677710 5.785724 -0.654664 -24.501124 -2.323870 -4.346939 28.465044 -1.543004 2.498669 -27.865684 0.000000 0.000000 0.000000 -18.276446 -8.538656 3.586413 -57.279845 -36.019269 8.794439 -14.541134 -67.369600 15.095009 0.000000 0.000000 0.000000 9.162074 8.715015 3.490133 55.680645 10.227201 -3.256035 62.766270 73.390096 54.876440 0.000000 0.000000 0.000000 
-0.006158 0.957154 -0.010625 -2.026605 6.863597 0.369404 4.751755 0.008892 3.612684 -2.327752 0.272370 -4.483203 8.948504 19.167403 13.920900 0.000000 0.000000 0.000000 -4.715209 0.227961 -3.086805 2.816394 -0.321953 2.159758 -3.692574 -11.563358 15.761950 0.000000 0.000000 0.000000 -0.420802 -0.487957 11.120781 6.030225 -0.723373 -24.511745 -1.863426 -4.417391 28.515265 -2.385665 2.953965 -28.486463 0.000000 0.000000 0.000000 -17.228223 -10.809162 4.798044 -58.381552 -43.190875 13.357868 1.916149 -60.648205 3.472769 0.000000 0.000000 0.000000 9.288922 11.540138 4.690287 54.731567 16.397682 -0.395958 29.270128 74.465237 27.872930 0.000000 0.000000 0.000000 
-0.009233 0.957221 -0.014190 -2.007420 6.535572 0.428044 4.791189 0.007049 3.515957 -2.147845 0.267722 -4.785805 8.940956 19.192021 14.573787 0.000000 0.000000 0.000000 -4.585566 0.247972 -3.305982 2.858067 -0.328277 1.810543 -3.559711 -11.449169 16.386436 0.000000 0.000000 0.000000 -0.507503 -0.491243 11.425712 6.271228 -0.790335 -24.468197 -1.667350 -4.527662 28.160586 -2.668186 3.069996 -29.046904 0.000000 0.000000 0.000000 -16.296492 -13.012297 5.936311 -59.367201 -48.126238 16.942876 11.108643 -53.780676 -1.702394 0.000000 0.000000 0.000000 8.719839 13.488346 5.431687 55.019314 21.633913 2.155206 1.717608 71.553549 6.225121 0.000000 0.000000 0.000000 
